<svg width="20" height="20" viewBox="0 0 20 20" xmlns="http://www.w3.org/2000/svg">
<path d="M12.25 17.5V13C12.25 12.8011 12.171 12.6103 12.0303 12.4697C11.8897 12.329 11.6989 12.25 11.5 12.25H8.5C8.30109 12.25 8.11032 12.329 7.96967 12.4697C7.82902 12.6103 7.75 12.8011 7.75 13V17.5C7.75 17.6989 7.67098 17.8897 7.53033 18.0303C7.38968 18.171 7.19891 18.25 7 18.25H2.5C2.30109 18.25 2.11032 18.171 1.96967 18.0303C1.82902 17.8897 1.75 17.6989 1.75 17.5V8.82813C1.75168 8.72433 1.77411 8.62192 1.81597 8.52693C1.85783 8.43193 1.91828 8.34628 1.99375 8.275L9.49375 1.45938C9.63201 1.33289 9.81261 1.26274 10 1.26274C10.1874 1.26274 10.368 1.33289 10.5062 1.45938L18.0062 8.275C18.0817 8.34628 18.1422 8.43193 18.184 8.52693C18.2259 8.62192 18.2483 8.72433 18.25 8.82813V17.5C18.25 17.6989 18.171 17.8897 18.0303 18.0303C17.8897 18.171 17.6989 18.25 17.5 18.25H13C12.8011 18.25 12.6103 18.171 12.4697 18.0303C12.329 17.8897 12.25 17.6989 12.25 17.5Z" stroke-width="0.1" stroke-linecap="round" stroke-linejoin="round"/>
</svg>
