<svg width="24" height="24" viewBox="0 0 24 24" xmlns="http://www.w3.org/2000/svg">
<g clip-path="url(#clip0_201_2178)">
<path d="M12.375 20.25H4.47188C4.37673 20.2513 4.28229 20.2334 4.19414 20.1976C4.10599 20.1618 4.02591 20.1087 3.95863 20.0414C3.89134 19.9741 3.83821 19.894 3.80238 19.8059C3.76655 19.7177 3.74874 19.6233 3.75 19.5281V11.625C3.75 9.33751 4.6587 7.14371 6.27621 5.5262C7.89371 3.9087 10.0875 3 12.375 3V3C13.5077 3 14.6292 3.22309 15.6756 3.65654C16.7221 4.08999 17.6729 4.7253 18.4738 5.5262C19.2747 6.32711 19.91 7.27792 20.3435 8.32436C20.7769 9.37079 21 10.4923 21 11.625V11.625C21 12.7577 20.7769 13.8792 20.3435 14.9256C19.91 15.9721 19.2747 16.9229 18.4738 17.7238C17.6729 18.5247 16.7221 19.16 15.6756 19.5935C14.6292 20.0269 13.5077 20.25 12.375 20.25V20.25Z"  stroke-width="2" stroke-linecap="round" stroke-linejoin="round"/>
<path d="M12.375 13.125C12.9963 13.125 13.5 12.6213 13.5 12C13.5 11.3787 12.9963 10.875 12.375 10.875C11.7537 10.875 11.25 11.3787 11.25 12C11.25 12.6213 11.7537 13.125 12.375 13.125Z" fill="white"/>
<path d="M7.875 13.125C8.49632 13.125 9 12.6213 9 12C9 11.3787 8.49632 10.875 7.875 10.875C7.25368 10.875 6.75 11.3787 6.75 12C6.75 12.6213 7.25368 13.125 7.875 13.125Z" fill="white"/>
<path d="M16.875 13.125C17.4963 13.125 18 12.6213 18 12C18 11.3787 17.4963 10.875 16.875 10.875C16.2537 10.875 15.75 11.3787 15.75 12C15.75 12.6213 16.2537 13.125 16.875 13.125Z" fill="white"/>
</g>
<defs>
<clipPath id="clip0_201_2178">
<rect width="50" height="50" fill="white"/>
</clipPath>
</defs>
</svg>
