<svg width="24" height="24" viewBox="0 0 40 40" fill="none" xmlns="http://www.w3.org/2000/svg">
<g clip-path="url(#clip0_581_2430)">
<path fill-rule="evenodd" clip-rule="evenodd" d="M8.62032 20C8.62032 18.7009 8.83594 17.4553 9.22125 16.2872L2.48063 11.14C1.16688 13.8072 0.42688 16.8128 0.42688 20C0.42688 23.1847 1.16625 26.1881 2.47782 28.8537L9.21469 23.6966C8.83313 22.5338 8.62032 21.2928 8.62032 20Z" fill="#FBBC05"/>
<path fill-rule="evenodd" clip-rule="evenodd" d="M20.4553 8.18187C23.2775 8.18187 25.8265 9.18187 27.8293 10.8181L33.6556 5C30.1053 1.90906 25.5534 0 20.4553 0C12.5403 0 5.73778 4.52625 2.48059 11.14L9.2209 16.2872C10.774 11.5728 15.2012 8.18187 20.4553 8.18187Z" fill="#EA4335"/>
<path fill-rule="evenodd" clip-rule="evenodd" d="M20.4553 31.8181C15.2015 31.8181 10.7743 28.4272 9.22122 23.7128L2.48059 28.8591C5.73778 35.4737 12.5403 40 20.4553 40C25.3403 40 30.0043 38.2653 33.5047 35.0153L27.1065 30.0691C25.3012 31.2062 23.0278 31.8181 20.4553 31.8181Z" fill="#34A853"/>
<path fill-rule="evenodd" clip-rule="evenodd" d="M39.5731 20C39.5731 18.8181 39.3909 17.5453 39.1178 16.3638H20.4553V24.0909H31.1978C30.6606 26.7256 29.1988 28.7509 27.1066 30.0691L33.5047 35.0153C37.1816 31.6028 39.5731 26.5191 39.5731 20Z" fill="#4285F4"/>
</g>
<defs>
<clipPath id="clip0_581_2430">
<rect width="40" height="40" fill="white"/>
</clipPath>
</defs>
</svg>
