<svg width="24" height="24" viewBox="0 0 24 24" xmlns="http://www.w3.org/2000/svg">
<path  d="M10.2353 14.5H3.17647V20.75H10.2353V14.5ZM20.8235 3.25H13.7647V9.5H20.8235V3.25ZM17.8824 20.75C19.5067 20.75 20.8235 19.3509 20.8235 17.625C20.8235 15.8991 19.5067 14.5 17.8824 14.5C16.258 14.5 14.9412 15.8991 14.9412 17.625C14.9412 19.3509 16.258 20.75 17.8824 20.75ZM6.11765 9.5C7.74201 9.5 9.05882 8.10089 9.05882 6.375C9.05882 4.64911 7.74201 3.25 6.11765 3.25C4.49328 3.25 3.17647 4.64911 3.17647 6.375C3.17647 8.10089 4.49328 9.5 6.11765 9.5ZM13.7647 2C13.115 2 12.5882 2.55964 12.5882 3.25V9.5C12.5882 10.1903 13.115 10.75 13.7647 10.75H20.8235C21.4733 10.75 22 10.1903 22 9.5V3.25C22 2.55964 21.4733 2 20.8235 2H13.7647ZM3.17647 13.25C2.52672 13.25 2 13.8097 2 14.5V20.75C2 21.4404 2.52672 22 3.17647 22H10.2353C10.885 22 11.4118 21.4404 11.4118 20.75V14.5C11.4118 13.8097 10.885 13.25 10.2353 13.25H3.17647ZM22 17.625C22 20.0413 20.1565 22 17.8824 22C15.6082 22 13.7647 20.0413 13.7647 17.625C13.7647 15.2087 15.6082 13.25 17.8824 13.25C20.1565 13.25 22 15.2087 22 17.625ZM6.11765 10.75C8.39176 10.75 10.2353 8.79125 10.2353 6.375C10.2353 3.95875 8.39176 2 6.11765 2C3.84353 2 2 3.95875 2 6.375C2 8.79125 3.84353 10.75 6.11765 10.75Z"/>
</svg>
